<svg xmlns="http://www.w3.org/2000/svg" viewBox="0 0 360 224" style="width:100%;display:block;background:#f6f7f9"><line x1="136.2" y1="13.0" x2="232.1" y2="24.4" stroke="#a60d0a" stroke-width="1.1" stroke-linecap="round"/><line x1="136.2" y1="13.0" x2="129.9" y2="77.6" stroke="#a60d0a" stroke-width="1.1" stroke-linecap="round"/><line x1="232.1" y1="24.4" x2="136.2" y2="13.0" stroke="#a60d0a" stroke-width="1.1" stroke-linecap="round"/><line x1="232.1" y1="24.4" x2="231.5" y2="53.9" stroke="#a60d0a" stroke-width="1.1" stroke-linecap="round"/><line x1="129.9" y1="77.6" x2="136.2" y2="13.0" stroke="#a60d0a" stroke-width="1.1" stroke-linecap="round"/><line x1="129.9" y1="77.6" x2="173.9" y2="92.7" stroke="#a60d0a" stroke-width="1.1" stroke-linecap="round"/><line x1="129.9" y1="77.6" x2="120.4" y2="124.7" stroke="#a60d0a" stroke-width="1.1" stroke-linecap="round"/><line x1="173.9" y1="92.7" x2="129.9" y2="77.6" stroke="#a60d0a" stroke-width="1.1" stroke-linecap="round"/><line x1="173.9" y1="92.7" x2="199.2" y2="92.1" stroke="#a60d0a" stroke-width="1.1" stroke-linecap="round"/><line x1="173.9" y1="92.7" x2="174.4" y2="124.4" stroke="#a60d0a" stroke-width="1.1" stroke-linecap="round"/><line x1="199.2" y1="92.1" x2="173.9" y2="92.7" stroke="#a60d0a" stroke-width="1.1" stroke-linecap="round"/><line x1="199.2" y1="92.1" x2="231.5" y2="53.9" stroke="#a60d0a" stroke-width="1.1" stroke-linecap="round"/><line x1="199.2" y1="92.1" x2="199.7" y2="117.1" stroke="#a60d0a" stroke-width="1.1" stroke-linecap="round"/><line x1="231.5" y1="53.9" x2="232.1" y2="24.4" stroke="#a60d0a" stroke-width="1.1" stroke-linecap="round"/><line x1="231.5" y1="53.9" x2="199.2" y2="92.1" stroke="#a60d0a" stroke-width="1.1" stroke-linecap="round"/><line x1="231.5" y1="53.9" x2="231.9" y2="94.9" stroke="#a60d0a" stroke-width="1.1" stroke-linecap="round"/><line x1="261.0" y1="92.4" x2="231.9" y2="94.9" stroke="#a60d0a" stroke-width="1.1" stroke-linecap="round"/><line x1="261.0" y1="92.4" x2="260.0" y2="120.1" stroke="#a60d0a" stroke-width="1.1" stroke-linecap="round"/><line x1="231.9" y1="94.9" x2="231.5" y2="53.9" stroke="#a60d0a" stroke-width="1.1" stroke-linecap="round"/><line x1="231.9" y1="94.9" x2="261.0" y2="92.4" stroke="#a60d0a" stroke-width="1.1" stroke-linecap="round"/><line x1="231.9" y1="94.9" x2="199.7" y2="117.1" stroke="#a60d0a" stroke-width="1.1" stroke-linecap="round"/><line x1="231.9" y1="94.9" x2="231.9" y2="120.1" stroke="#a60d0a" stroke-width="1.1" stroke-linecap="round"/><line x1="199.7" y1="117.1" x2="199.2" y2="92.1" stroke="#a60d0a" stroke-width="1.1" stroke-linecap="round"/><line x1="199.7" y1="117.1" x2="231.9" y2="94.9" stroke="#a60d0a" stroke-width="1.1" stroke-linecap="round"/><line x1="199.7" y1="117.1" x2="199.4" y2="122.5" stroke="#a60d0a" stroke-width="1.1" stroke-linecap="round"/><line x1="199.4" y1="122.5" x2="199.7" y2="117.1" stroke="#a60d0a" stroke-width="1.1" stroke-linecap="round"/><line x1="199.4" y1="122.5" x2="174.4" y2="124.4" stroke="#a60d0a" stroke-width="1.1" stroke-linecap="round"/><line x1="199.4" y1="122.5" x2="199.3" y2="148.3" stroke="#a60d0a" stroke-width="1.1" stroke-linecap="round"/><line x1="199.4" y1="122.5" x2="231.9" y2="120.1" stroke="#a60d0a" stroke-width="1.1" stroke-linecap="round"/><line x1="199.4" y1="122.5" x2="231.9" y2="129.0" stroke="#a60d0a" stroke-width="1.1" stroke-linecap="round"/><line x1="174.4" y1="124.4" x2="173.9" y2="92.7" stroke="#a60d0a" stroke-width="1.1" stroke-linecap="round"/><line x1="174.4" y1="124.4" x2="199.4" y2="122.5" stroke="#a60d0a" stroke-width="1.1" stroke-linecap="round"/><line x1="174.4" y1="124.4" x2="120.4" y2="124.7" stroke="#a60d0a" stroke-width="1.1" stroke-linecap="round"/><line x1="174.4" y1="124.4" x2="167.6" y2="148.4" stroke="#a60d0a" stroke-width="1.1" stroke-linecap="round"/><line x1="120.4" y1="124.7" x2="129.9" y2="77.6" stroke="#a60d0a" stroke-width="1.1" stroke-linecap="round"/><line x1="120.4" y1="124.7" x2="174.4" y2="124.4" stroke="#a60d0a" stroke-width="1.1" stroke-linecap="round"/><line x1="120.4" y1="124.7" x2="99.0" y2="211.0" stroke="#a60d0a" stroke-width="1.1" stroke-linecap="round"/><line x1="99.0" y1="211.0" x2="120.4" y2="124.7" stroke="#a60d0a" stroke-width="1.1" stroke-linecap="round"/><line x1="99.0" y1="211.0" x2="170.6" y2="190.8" stroke="#a60d0a" stroke-width="1.1" stroke-linecap="round"/><line x1="167.6" y1="148.4" x2="174.4" y2="124.4" stroke="#a60d0a" stroke-width="1.1" stroke-linecap="round"/><line x1="167.6" y1="148.4" x2="199.3" y2="148.3" stroke="#a60d0a" stroke-width="1.1" stroke-linecap="round"/><line x1="167.6" y1="148.4" x2="167.8" y2="171.8" stroke="#a60d0a" stroke-width="1.1" stroke-linecap="round"/><line x1="199.3" y1="148.3" x2="199.4" y2="122.5" stroke="#a60d0a" stroke-width="1.1" stroke-linecap="round"/><line x1="199.3" y1="148.3" x2="167.6" y2="148.4" stroke="#a60d0a" stroke-width="1.1" stroke-linecap="round"/><line x1="199.3" y1="148.3" x2="232.0" y2="148.0" stroke="#a60d0a" stroke-width="1.1" stroke-linecap="round"/><line x1="199.3" y1="148.3" x2="199.7" y2="171.8" stroke="#a60d0a" stroke-width="1.1" stroke-linecap="round"/><line x1="231.9" y1="120.1" x2="231.9" y2="94.9" stroke="#a60d0a" stroke-width="1.1" stroke-linecap="round"/><line x1="231.9" y1="120.1" x2="199.4" y2="122.5" stroke="#a60d0a" stroke-width="1.1" stroke-linecap="round"/><line x1="231.9" y1="120.1" x2="231.9" y2="129.0" stroke="#a60d0a" stroke-width="1.1" stroke-linecap="round"/><line x1="231.9" y1="120.1" x2="260.0" y2="120.1" stroke="#a60d0a" stroke-width="1.1" stroke-linecap="round"/><line x1="231.9" y1="129.0" x2="199.4" y2="122.5" stroke="#a60d0a" stroke-width="1.1" stroke-linecap="round"/><line x1="231.9" y1="129.0" x2="231.9" y2="120.1" stroke="#a60d0a" stroke-width="1.1" stroke-linecap="round"/><line x1="231.9" y1="129.0" x2="232.0" y2="148.0" stroke="#a60d0a" stroke-width="1.1" stroke-linecap="round"/><line x1="260.0" y1="120.1" x2="261.0" y2="92.4" stroke="#a60d0a" stroke-width="1.1" stroke-linecap="round"/><line x1="260.0" y1="120.1" x2="231.9" y2="120.1" stroke="#a60d0a" stroke-width="1.1" stroke-linecap="round"/><line x1="260.0" y1="120.1" x2="232.2" y2="171.1" stroke="#a60d0a" stroke-width="1.1" stroke-linecap="round"/><line x1="232.0" y1="148.0" x2="199.3" y2="148.3" stroke="#a60d0a" stroke-width="1.1" stroke-linecap="round"/><line x1="232.0" y1="148.0" x2="231.9" y2="129.0" stroke="#a60d0a" stroke-width="1.1" stroke-linecap="round"/><line x1="232.0" y1="148.0" x2="232.2" y2="171.1" stroke="#a60d0a" stroke-width="1.1" stroke-linecap="round"/><line x1="232.2" y1="171.1" x2="260.0" y2="120.1" stroke="#a60d0a" stroke-width="1.1" stroke-linecap="round"/><line x1="232.2" y1="171.1" x2="232.0" y2="148.0" stroke="#a60d0a" stroke-width="1.1" stroke-linecap="round"/><line x1="232.2" y1="171.1" x2="200.1" y2="178.9" stroke="#a60d0a" stroke-width="1.1" stroke-linecap="round"/><line x1="232.2" y1="171.1" x2="199.7" y2="171.8" stroke="#a60d0a" stroke-width="1.1" stroke-linecap="round"/><line x1="200.1" y1="178.9" x2="232.2" y2="171.1" stroke="#a60d0a" stroke-width="1.1" stroke-linecap="round"/><line x1="200.1" y1="178.9" x2="199.7" y2="171.8" stroke="#a60d0a" stroke-width="1.1" stroke-linecap="round"/><line x1="200.1" y1="178.9" x2="170.6" y2="190.8" stroke="#a60d0a" stroke-width="1.1" stroke-linecap="round"/><line x1="199.7" y1="171.8" x2="199.3" y2="148.3" stroke="#a60d0a" stroke-width="1.1" stroke-linecap="round"/><line x1="199.7" y1="171.8" x2="232.2" y2="171.1" stroke="#a60d0a" stroke-width="1.1" stroke-linecap="round"/><line x1="199.7" y1="171.8" x2="200.1" y2="178.9" stroke="#a60d0a" stroke-width="1.1" stroke-linecap="round"/><line x1="199.7" y1="171.8" x2="167.8" y2="171.8" stroke="#a60d0a" stroke-width="1.1" stroke-linecap="round"/><line x1="167.8" y1="171.8" x2="167.6" y2="148.4" stroke="#a60d0a" stroke-width="1.1" stroke-linecap="round"/><line x1="167.8" y1="171.8" x2="199.7" y2="171.8" stroke="#a60d0a" stroke-width="1.1" stroke-linecap="round"/><line x1="167.8" y1="171.8" x2="170.6" y2="190.8" stroke="#a60d0a" stroke-width="1.1" stroke-linecap="round"/><line x1="170.6" y1="190.8" x2="99.0" y2="211.0" stroke="#a60d0a" stroke-width="1.1" stroke-linecap="round"/><line x1="170.6" y1="190.8" x2="200.1" y2="178.9" stroke="#a60d0a" stroke-width="1.1" stroke-linecap="round"/><line x1="170.6" y1="190.8" x2="167.8" y2="171.8" stroke="#a60d0a" stroke-width="1.1" stroke-linecap="round"/><circle cx="136.2" cy="13.0" r="1.1" fill="#0366d6" opacity=".35"/><circle cx="232.1" cy="24.4" r="1.1" fill="#0366d6" opacity=".35"/><circle cx="129.9" cy="77.6" r="1.1" fill="#0366d6" opacity=".35"/><circle cx="173.9" cy="92.7" r="1.1" fill="#0366d6" opacity=".35"/><circle cx="199.2" cy="92.1" r="1.1" fill="#0366d6" opacity=".35"/><circle cx="231.5" cy="53.9" r="1.1" fill="#0366d6" opacity=".35"/><circle cx="261.0" cy="92.4" r="1.1" fill="#0366d6" opacity=".35"/><circle cx="231.9" cy="94.9" r="1.1" fill="#0366d6" opacity=".35"/><circle cx="199.7" cy="117.1" r="1.1" fill="#0366d6" opacity=".35"/><circle cx="199.4" cy="122.5" r="1.1" fill="#0366d6" opacity=".35"/><circle cx="174.4" cy="124.4" r="1.1" fill="#0366d6" opacity=".35"/><circle cx="120.4" cy="124.7" r="1.1" fill="#0366d6" opacity=".35"/><circle cx="99.0" cy="211.0" r="1.1" fill="#0366d6" opacity=".35"/><circle cx="167.6" cy="148.4" r="1.1" fill="#0366d6" opacity=".35"/><circle cx="199.3" cy="148.3" r="1.1" fill="#0366d6" opacity=".35"/><circle cx="231.9" cy="120.1" r="1.1" fill="#0366d6" opacity=".35"/><circle cx="231.9" cy="129.0" r="1.1" fill="#0366d6" opacity=".35"/><circle cx="260.0" cy="120.1" r="1.1" fill="#0366d6" opacity=".35"/><circle cx="232.0" cy="148.0" r="1.1" fill="#0366d6" opacity=".35"/><circle cx="232.2" cy="171.1" r="1.1" fill="#0366d6" opacity=".35"/><circle cx="200.1" cy="178.9" r="1.1" fill="#0366d6" opacity=".35"/><circle cx="199.7" cy="171.8" r="1.1" fill="#0366d6" opacity=".35"/><circle cx="167.8" cy="171.8" r="1.1" fill="#0366d6" opacity=".35"/><circle cx="170.6" cy="190.8" r="1.1" fill="#0366d6" opacity=".35"/><g font-family="system-ui,Arial" font-size="9" fill="#555"><defs><linearGradient id="g"><stop offset="0" stop-color="#a60d0a"/><stop offset=".5" stop-color="#ed8f29"/><stop offset="1" stop-color="#78c343"/></linearGradient></defs><rect x="13" y="211" width="86" height="7" fill="url(#g)" rx="1"/><text x="13" y="209">lanes</text><text x="103" y="217">1&#8211;2</text></g></svg>